<svg width="34" height="28" viewBox="0 0 34 28" fill="none" xmlns="http://www.w3.org/2000/svg">
<path d="M32.3486 13.6086H30.6332V24.0705L23.1178 17.3457L21.6781 18.634L29.0607 25.2492H3.73725L10.885 18.634L9.4146 17.364L2.04221 24.1893V8.36397L14.7346 19.6665C15.1172 20.0068 15.6348 20.1979 16.1743 20.1979C16.7138 20.1979 17.2314 20.0068 17.6141 19.6665L24.4146 13.6086H21.5249L16.1743 18.369L3.37986 6.97514H18.4412L19.6154 5.14774H2.04221C1.50058 5.14774 0.981139 5.34027 0.59815 5.68297C0.215161 6.02568 0 6.49048 0 6.97514V25.2492C0 25.7339 0.215161 26.1987 0.59815 26.5414C0.981139 26.8841 1.50058 27.0766 2.04221 27.0766H30.6332C31.1748 27.0766 31.6942 26.8841 32.0772 26.5414C32.4602 26.1987 32.6754 25.7339 32.6754 25.2492V13.5904L32.3486 13.6086Z" fill="white"/>
<path d="M25.3747 0.579246L19.5339 9.63405C19.4221 9.81102 19.3637 10.011 19.3646 10.2143C19.3655 10.4177 19.4256 10.6172 19.539 10.7934C19.6524 10.9696 19.8152 11.1163 20.0113 11.219C20.2073 11.3218 20.43 11.377 20.6572 11.3792H32.3488C32.576 11.377 32.7986 11.3218 32.9947 11.219C33.1908 11.1163 33.3536 10.9696 33.467 10.7934C33.5803 10.6172 33.6405 10.4177 33.6413 10.2143C33.6422 10.011 33.5839 9.81102 33.472 9.63405L27.6313 0.579246C27.5161 0.402952 27.3514 0.256719 27.1534 0.155095C26.9554 0.0534717 26.7312 0 26.503 0C26.2748 0 26.0505 0.0534717 25.8526 0.155095C25.6546 0.256719 25.4899 0.402952 25.3747 0.579246Z" fill="white"/>
</svg>
